<svg class="c-logo" enable-background="new 0 0 188.2 37" shape-rendering="geometricPrecision" viewBox="0 0 188.2 37" xmlns="http://www.w3.org/2000/svg"><g fill="#231f20"><path d="m82.9 13.4c-2.1-1.2-4-1.8-6-1.8-4 0-6.9 2.8-6.9 6.6 0 3.9 2.8 6.6 7 6.6 2 0 4.1-.7 6-2v2.7c-1.7.9-3.5 1.5-6.3 1.5-6.5 0-9.3-5-9.3-8.6 0-5.3 4-9.1 9.5-9.1 1.8 0 3.6.4 5.9 1.4v2.7z"/><path d="m94.6 26.2c-1 .7-1.5.9-2.2.9-1 0-1.5-.4-1.7-1.2-1 .8-2 1.2-3.1 1.2-1.7 0-2.8-1.3-2.8-2.8 0-2.3 2.1-2.9 3.9-3.6l2-.7v-.6c0-1.4-.7-2-2.1-2-1.2 0-2.5.6-3.6 1.9v-2.5c.9-1 2.1-1.5 3.8-1.5 2.3 0 4.1 1.2 4.1 3.8v5.9c0 .4.2.6.4.6s.7-.2 1.2-.6zm-3.9-5c-1.9.7-3.6 1.3-3.6 2.7 0 .9.7 1.6 1.6 1.6.7 0 1.4-.4 2-.9z"/><path d="m99 15.5v2.6h.1c1.1-2 2.2-2.8 3.3-2.8.9 0 1.8.4 2.7 1.3l-1.2 2c-.7-.7-1.6-1.1-2.1-1.1-1.5 0-2.8 1.5-2.8 3.5v6h-2.3v-11.5z"/><path d="m108.8 32.7h-2.3v-17.2h3.9c4.2 0 6.4 2 6.4 5.8 0 3.4-2.4 5.8-5.8 5.8-.7 0-1.4-.2-2.3-.5v6.1zm0-8.2c.7.3 1.4.5 2.1.5 2.1 0 3.6-1.6 3.6-3.8 0-2.4-1.2-3.7-3.7-3.7h-2.1z"/><path d="m128.8 25.7c-1.4.9-2.6 1.3-4.5 1.3-3.5 0-5.5-2.9-5.5-6.1 0-3.4 2.2-5.8 5.3-5.8 3 0 4.9 2.1 4.9 6.3h-8c.4 2.3 1.6 3.4 3.8 3.4 1.4 0 2.7-.5 4-1.4zm-2-5.7c-.1-1.7-1.1-2.8-2.7-2.8-1.7 0-2.8 1-3.1 2.8z"/><path d="m134.1 15.5h3.6v2h-3.6v5.8c0 1.3 1 1.7 1.6 1.7.8 0 1.6-.3 2.6-.8v2.1c-.8.4-2 .8-2.7.8-2.5 0-3.7-1.5-3.7-3.6v-6h-2v-.3l4.2-4.1z"/><path d="m146.3 27h-.5l-7.5-17.4h2.5l5.2 12.1 5.2-12.1h2.5z"/><path d="m156.4 13.4c-.7 0-1.3-.6-1.3-1.3s.6-1.3 1.3-1.3 1.3.6 1.3 1.3-.6 1.3-1.3 1.3zm1.1 13.4h-2.3v-11.3h2.3z"/><path d="m167.1 18.4c-1.3-.8-2.5-1.2-3.3-1.2-.9 0-1.5.4-1.5 1 0 .5.8 1.1 2.8 2.3 1.9 1.2 2.6 2 2.6 3.2 0 2-1.6 3.3-3.8 3.3-1.4 0-2.5-.3-4-1v-2.4c1.5 1 2.8 1.5 3.7 1.5.9-.1 1.7-.5 1.7-1.3 0-1.6-5.3-2.4-5.3-5.5 0-1.9 1.5-3.1 3.8-3.1 1.1 0 2.2.3 3.3.9z"/><path d="m172.9 15.5h3.6v2h-3.6v5.8c0 1.3 1 1.7 1.6 1.7.8 0 1.6-.3 2.6-.8v2.1c-.8.4-2 .8-2.7.8-2.5 0-3.7-1.5-3.7-3.6v-6h-2v-.3l4.2-4.1z"/><path d="m188.2 26.2c-1 .7-1.5.9-2.2.9-1 0-1.5-.4-1.7-1.2-1 .8-2 1.2-3.1 1.2-1.7 0-2.8-1.3-2.8-2.8 0-2.3 2.1-2.9 3.9-3.6l2-.7v-.6c0-1.4-.7-2-2.1-2-1.2 0-2.5.6-3.6 1.9v-2.5c.9-1 2.1-1.5 3.8-1.5 2.3 0 4.1 1.2 4.1 3.8v5.9c0 .4.2.6.4.6s.7-.2 1.2-.6v1.2zm-3.9-5c-1.9.7-3.6 1.3-3.6 2.7 0 .9.7 1.6 1.6 1.6.7 0 1.4-.4 2-.9z"/></g><path d="m40.7 0c-2.1 6.7-5.7 11-13.3 11.9-11.8 1.3-15.8-.8-22 3.6-4.9 3.5-5.4 8-5.4 9.8 9.1 1.4 22.5 11.7 22.5 11.7s.6-6.2 3.5-9.5c6.6-7.7 14.8-2.6 24.9-6.2 6.8-2.4 10-11.8 10-11.8s-14-1.7-20.2-9.5z" fill="#b3282d"/></svg>